<?xml version="1.0" encoding="utf-8"?>
<!-- Generator: Adobe Illustrator 21.0.2, SVG Export Plug-In . SVG Version: 6.00 Build 0)  -->
<svg class="pulse" version="1.1" xmlns="http://www.w3.org/2000/svg" xmlns:xlink="http://www.w3.org/1999/xlink" x="0px" y="0px"
	 viewBox="0 0 500 500" style="enable-background:new 0 0 500 500;" xml:space="preserve">
<style type="text/css">
	.st0{enable-background:new    ;}
	.st1{fill:#512DA8;}
	.st2{fill:none;}
	.st3{font-family:'ProximaNova-Regular';}
	.st4{font-size:160px;}
	.st5{letter-spacing:4;}
	.st6{letter-spacing:-10;}
	.st7{font-size:250px;}
	.st8{letter-spacing:6;}
</style>
<g id="Многоугольник_1_1_" class="st0">
	<g id="Многоугольник_1">
		<g>
			<path class="st1" d="M252,17.3l165.9,68.7L486.7,252l-68.7,165.9L252,486.7L86.1,417.9L17.3,252L86.1,86.1L252,17.3 M252,4.5
				L77,77L4.5,252L77,427l175,72.5L427,427l72.5-175L427,77L252,4.5L252,4.5z">
				<animateTransform attributeName="transform"
			attributeType="XML"
			type="rotate"
			from="0 250 250"
			to="360 250 250"
			dur="10s"
			repeatCount="indefinite" />
			</path>
		</g>
	</g>
</g>
<g id="_x09_C">
	<polygon class="st2" points="495.5,176 423,351 248,423.5 73,351 0.5,176 73,1 248,-71.5 423,1 	"/>
	<text transform="matrix(1 0 0 1 222.2481 35.194)"><tspan x="0" y="0" class="st1 st3 st4 st5">      </tspan><tspan x="271.7" y="0" class="st1 st3 st4 st6">	</tspan><tspan x="-58.7" y="300" class="st1 st3 st7 st8">C</tspan>

</text>
</g>
</svg>
